<?xml version="1.0" encoding="utf-8"?>
<!-- Generator: Adobe Illustrator 16.0.0, SVG Export Plug-In . SVG Version: 6.00 Build 0)  -->
<!DOCTYPE svg PUBLIC "-//W3C//DTD SVG 1.1//EN" "http://www.w3.org/Graphics/SVG/1.1/DTD/svg11.dtd">
<svg version="1.1" xmlns="http://www.w3.org/2000/svg" xmlns:xlink="http://www.w3.org/1999/xlink" x="0px" y="0px" width="1200px"
	 height="628px" viewBox="0 0 1200 628" enable-background="new 0 0 1200 628" xml:space="preserve">
<g id="Calque_3">
	<g>
		<rect x="227.72" y="47.541" fill="#FFFFFF" width="753.986" height="453.134"/>
		<g>
			<g>
				<path fill="#666666" d="M1048.183,529.496c0-0.106-0.012-0.225-0.012-0.331H155.454c0,0.106,0,0.225,0,0.331
					c0,11.054,2.058,21.346,5.599,29.966h881.523C1046.118,550.842,1048.183,540.55,1048.183,529.496z"/>
				<path fill="#808181" d="M161.053,559.462c6.192,15.088,16.93,25.065,29.139,25.065h823.231c12.209,0,22.954-9.978,29.152-25.065
					H161.053z"/>
			</g>
			<path fill="#B4B4B4" d="M471.398,556.846c0,7.131,5.786,12.901,12.917,12.901h235.001c7.14,0,12.922-5.771,12.922-12.901l0,0
				c0-7.133-5.782-12.917-12.922-12.917H484.314C477.184,543.929,471.398,549.713,471.398,556.846L471.398,556.846z"/>
			<g>
				<polygon fill="none" points="239.362,58.765 239.362,484.277 964.266,484.277 964.266,483.872 240.564,58.765 				"/>
				<path fill="#666666" d="M964.266,58.765v425.107l27.901,16.392c6.869-8.936,11.012-20.506,11.012-33.15V75.937
					c0-28.3-20.729-51.23-46.301-51.23h-710.12c-13.82,0-26.223,6.694-34.705,17.31l28.511,16.749H964.266z"/>
				<path fill="#808181" d="M964.266,483.872v0.405H239.362V58.765h1.203l-28.511-16.749c-7.223,9.035-11.608,20.906-11.608,33.92
					v391.176c0,28.277,20.731,51.22,46.313,51.22h710.12c14.141,0,26.795-7.018,35.289-18.069L964.266,483.872z"/>
			</g>
		</g>
	</g>
</g>
<g id="Calque_2">
	<g>
		<path fill="#E60000" d="M620.229,217.647c-16.319-9.423-37.191-3.833-46.615,12.489c-9.423,16.323-3.831,37.193,12.49,46.616
			c5.383,3.107,11.262,4.581,17.064,4.577c11.781-0.012,23.235-6.13,29.552-17.068c6.314-10.936,5.888-23.915,0.005-34.125
			C629.831,225.111,625.614,220.755,620.229,217.647z"/>
		<path fill="#E60000" d="M603.169,202.613c7.577-0.008,15.257,1.918,22.291,5.979c5.471,3.158,10.015,7.304,13.545,12.079
			l39.556-22.889l-75.36-43.514l-0.029,0.019l-75.406,43.565l39.557,22.839C575.906,209.057,589.364,202.627,603.169,202.613z"/>
		<path fill="#E60000" d="M679.173,293.615c1.199,0,2.667,0.039,3.855,0.09l0.247-0.062l0.194-87.164l-39.607,22.91
			c5.445,12.521,4.508,27.371-2.844,40.104C633.72,282.127,623,289.833,607,291.459v45.191
			C622,311.025,648.215,293.615,679.173,293.615z"/>
		<path fill="#E60000" d="M598,336.925v-45.39c-6-0.641-11.767-2.511-17.334-5.729c-7.033-4.061-12.428-9.748-16.208-16.314
			c-6.891-11.962-8.003-26.836-2.216-40.084l-39.805-22.838l-0.381,58.491C558.37,273.891,588,301.439,598,336.925z"/>
	</g>
	<text transform="matrix(1 0 0 1 396.5732 301.4883)" fill="#E60000" font-family="'SourceSansPro'" font-size="196.2434">4</text>
	<text transform="matrix(1 0 0 1 704.0996 295.9082)" fill="#E60000" font-family="'SourceSansPro'" font-size="196.2434">4</text>
	<text transform="matrix(1 0 0 1 498.1494 398.5967)" fill="#E60000" font-family="'SourceSansPro'" font-size="66.977">ERROR</text>
</g>
</svg>
