<?xml version="1.0" encoding="utf-8"?>
<!-- Generator: Adobe Illustrator 16.0.0, SVG Export Plug-In . SVG Version: 6.00 Build 0)  -->
<!DOCTYPE svg PUBLIC "-//W3C//DTD SVG 1.1//EN" "http://www.w3.org/Graphics/SVG/1.1/DTD/svg11.dtd">
<svg version="1.1" xmlns="http://www.w3.org/2000/svg" xmlns:xlink="http://www.w3.org/1999/xlink" x="0px" y="0px" width="1200px"
	 height="628px" viewBox="0 0 1200 628" enable-background="new 0 0 1200 628" xml:space="preserve">
<g id="Calque_3">
</g>
<g id="Calque_2">
	<g>
		<path fill="#E60000" d="M654.924,255.467c-36.66-21.167-83.541-8.609-104.71,28.053c-21.167,36.667-8.604,83.542,28.055,104.711
			c12.09,6.979,25.298,10.286,38.329,10.279c26.465-0.028,52.194-13.77,66.383-38.339c14.184-24.564,13.224-53.717,0.01-76.652
			C676.49,272.232,667.018,262.448,654.924,255.467z"/>
		<path fill="#E60000" d="M616.598,221.697c17.022-0.019,34.273,4.307,50.073,13.43c12.287,7.093,22.495,16.405,30.424,27.131
			l88.849-51.414L616.67,113.102l-0.064,0.043L447.228,211l88.851,51.302C555.36,236.171,585.592,221.729,616.598,221.697z"/>
		<path fill="#E60000" d="M787.721,426.107c2.691,0,5.787,0.088,8.457,0.201l0.461-0.144l0.384-195.785l-88.993,51.461
			c12.231,28.124,10.508,61.482-6.002,90.081C685.633,400.303,661,417.611,626,421.264v101.509
			C659,465.214,718.181,426.107,787.721,426.107z"/>
		<path fill="#E60000" d="M604,523.39V421.436c-14-1.439-25.938-5.64-38.442-12.868c-15.793-9.122-27.667-21.897-36.158-36.646
			c-15.477-26.868-17.854-60.279-4.857-90.036l-89.349-51.299l-1.315,131.382C515.449,381.801,583,443.682,604,523.39z"/>
	</g>
	<text transform="matrix(1 0 0 1 152.541 443.792)" fill="#E60000" font-size="440.8043">5</text>
	<text transform="matrix(1 0 0 1 837.4629 434.1846)" fill="#E60000" font-size="440.8043">3</text>
</g>
</svg>
