<?xml version="1.0" encoding="utf-8"?>
<!-- Generator: Adobe Illustrator 16.0.0, SVG Export Plug-In . SVG Version: 6.00 Build 0)  -->
<!DOCTYPE svg PUBLIC "-//W3C//DTD SVG 1.1//EN" "http://www.w3.org/Graphics/SVG/1.1/DTD/svg11.dtd">
<svg version="1.1" xmlns="http://www.w3.org/2000/svg" xmlns:xlink="http://www.w3.org/1999/xlink" x="0px" y="0px" width="1200px"
	 height="628px" viewBox="0 0 1200 628" enable-background="new 0 0 1200 628" xml:space="preserve">
<g id="Calque_3">
	<g>
		<g>
			
				<line fill="none" stroke="#818181" stroke-width="0.7303" stroke-miterlimit="10" x1="905.31" y1="329.409" x2="833.973" y2="296.263"/>
			
				<line fill="none" stroke="#818181" stroke-width="0.7303" stroke-miterlimit="10" x1="825.99" y1="293.89" x2="759.473" y2="316.781"/>
		</g>
		<g>
			<g>
				<g>
					<path fill="#818181" d="M833.787,268.586c0,1.893,0,3.785,0,5.677c0,4.142-3.827,5.178-6.485,7.278
						c-3.862,3.051-4.23,9.17-1.707,13.125c1.979,3.102,6.258,4.958,9.872,4.313c4.85-0.865,6.903-4.965,7.059-9.563
						c0.048-1.414-2.144-1.409-2.191,0c-0.403,11.938-16.636,7.742-13.68-3.179c1.188-4.392,6.955-4.952,8.801-9.079
						c1.101-2.459,0.523-5.961,0.523-8.573C835.979,267.173,833.787,267.173,833.787,268.586L833.787,268.586z"/>
				</g>
			</g>
			<g>
				
					<rect x="1060.268" y="154.716" transform="matrix(0.7843 0.6203 -0.6203 0.7843 335.4907 -621.2688)" fill="#818181" width="1.947" height="34.291"/>
				
					<rect x="1038.721" y="154.716" transform="matrix(0.7839 0.6208 -0.6208 0.7839 331.3291 -608.343)" fill="#818181" width="1.946" height="34.291"/>
				
					<rect x="1016.534" y="154.715" transform="matrix(0.7843 0.6203 -0.6203 0.7843 326.0586 -594.1387)" fill="#818181" width="1.947" height="34.292"/>
				
					<rect x="994.188" y="154.716" transform="matrix(0.7841 0.6206 -0.6206 0.7841 321.4732 -580.4858)" fill="#818181" width="1.947" height="34.292"/>
				
					<rect x="972.799" y="154.715" transform="matrix(0.7843 0.6203 -0.6203 0.7843 316.6263 -567.0081)" fill="#818181" width="1.947" height="34.293"/>
				
					<rect x="950.932" y="154.716" transform="matrix(0.7843 0.6203 -0.6203 0.7843 311.9101 -553.4427)" fill="#818181" width="1.947" height="34.291"/>
				
					<rect x="929.064" y="154.716" transform="matrix(0.7841 0.6206 -0.6206 0.7841 307.4155 -540.071)" fill="#818181" width="1.947" height="34.291"/>
				
					<rect x="906.559" y="154.716" transform="matrix(0.7841 0.6206 -0.6206 0.7841 302.5575 -526.1047)" fill="#818181" width="1.947" height="34.291"/>
				
					<rect x="885.01" y="154.716" transform="matrix(0.7843 0.6203 -0.6203 0.7843 297.6929 -512.5488)" fill="#818181" width="1.947" height="34.291"/>
				
					<rect x="863.463" y="154.715" transform="matrix(0.7841 0.6206 -0.6206 0.7841 293.2545 -499.3595)" fill="#818181" width="1.947" height="34.292"/>
				
					<rect x="1044.097" y="170.888" transform="matrix(0.6205 0.7842 -0.7842 0.6205 537.4649 -766.9825)" fill="#818181" width="34.29" height="1.948"/>
				
					<rect x="1022.549" y="170.888" transform="matrix(0.6205 0.7842 -0.7842 0.6205 529.2884 -750.0853)" fill="#818181" width="34.29" height="1.946"/>
				
					<rect x="1000.362" y="170.888" transform="matrix(0.6206 0.7841 -0.7841 0.6206 520.8091 -732.6544)" fill="#818181" width="34.292" height="1.948"/>
				
					<rect x="978.016" y="170.888" transform="matrix(0.6206 0.7841 -0.7841 0.6206 512.3506 -715.1425)" fill="#818181" width="34.291" height="1.947"/>
				
					<rect x="956.627" y="170.888" transform="matrix(0.6206 0.7841 -0.7841 0.6206 504.1966 -698.35)" fill="#818181" width="34.292" height="1.948"/>
				
					<rect x="934.76" y="170.888" transform="matrix(0.6206 0.7842 -0.7842 0.6206 495.9574 -681.2337)" fill="#818181" width="34.29" height="1.948"/>
				
					<rect x="912.892" y="170.888" transform="matrix(0.6206 0.7842 -0.7842 0.6206 487.6599 -664.0859)" fill="#818181" width="34.29" height="1.947"/>
				
					<rect x="890.388" y="170.888" transform="matrix(0.6206 0.7842 -0.7842 0.6206 479.1207 -646.4385)" fill="#818181" width="34.29" height="1.947"/>
				
					<rect x="868.839" y="170.888" transform="matrix(0.6205 0.7842 -0.7842 0.6205 470.962 -629.5501)" fill="#818181" width="34.29" height="1.948"/>
				
					<rect x="847.29" y="170.888" transform="matrix(0.6206 0.7841 -0.7841 0.6206 462.733 -612.626)" fill="#818181" width="34.292" height="1.947"/>
				<path fill="#818181" d="M1074.204,186.281H815.025l38.082-28.838h221.097V186.281z M820.821,184.333h251.437V159.39H853.762
					L820.821,184.333z"/>
			</g>
			<g>
				
					<rect x="1094.328" y="170.888" transform="matrix(0.6206 0.7842 -0.7842 0.6206 556.504 -806.3606)" fill="#818181" width="34.29" height="1.948"/>
				
					<rect x="1115.877" y="170.887" transform="matrix(0.6205 0.7842 -0.7842 0.6205 564.7022 -823.2702)" fill="#818181" width="34.29" height="1.949"/>
				
					<rect x="1138.063" y="170.888" transform="matrix(0.6206 0.7841 -0.7841 0.6206 573.076 -840.6428)" fill="#6D6D6D" width="34.291" height="1.948"/>
				
					<rect x="1110.5" y="154.716" transform="matrix(0.7843 0.6203 -0.6203 0.7843 346.3242 -652.4298)" fill="#818181" width="1.947" height="34.291"/>
				
					<rect x="1132.047" y="154.716" transform="matrix(0.7845 0.6201 -0.6201 0.7845 350.7109 -665.5536)" fill="#818181" width="1.948" height="34.291"/>
				
					<rect x="1154.235" y="154.716" transform="matrix(0.7843 0.6203 -0.6203 0.7843 355.7564 -679.5604)" fill="#545454" width="1.947" height="34.292"/>
			</g>
			<g>
				
					<rect x="1086.059" y="161.279" transform="matrix(0.4795 0.8775 -0.8775 0.4795 721.1085 -861.7756)" fill="#818181" width="1.947" height="31.456"/>
				
					<rect x="1086.059" y="146.004" transform="matrix(0.4795 0.8775 -0.8775 0.4795 707.7039 -869.7262)" fill="#818181" width="1.947" height="31.456"/>
				
					<rect x="1086.059" y="130.276" transform="matrix(0.4795 0.8775 -0.8775 0.4795 693.902 -877.9124)" fill="#818181" width="1.947" height="31.456"/>
				
					<rect x="1086.059" y="114.435" transform="matrix(0.4795 0.8775 -0.8775 0.4795 680.001 -886.1573)" fill="#818181" width="1.947" height="31.457"/>
				
					<rect x="1071.304" y="176.034" transform="matrix(0.8775 0.4796 -0.4796 0.8775 218.0297 -499.6057)" fill="#818181" width="31.456" height="1.947"/>
				
					<rect x="1071.304" y="160.758" transform="matrix(0.8775 0.4795 -0.4795 0.8775 210.6954 -501.4648)" fill="#818181" width="31.456" height="1.947"/>
				
					<rect x="1071.304" y="145.031" transform="matrix(0.8775 0.4796 -0.4796 0.8775 203.1709 -503.4152)" fill="#818181" width="31.457" height="1.947"/>
				
					<rect x="1071.304" y="129.19" transform="matrix(0.8775 0.4796 -0.4796 0.8775 195.5741 -505.3555)" fill="#818181" width="31.457" height="1.947"/>
			</g>
			
				<rect x="1100.834" y="158.417" fill="none" stroke="#818181" stroke-width="1.9474" stroke-miterlimit="10" width="74.053" height="26.889"/>
			<path fill="#818181" d="M1101.808,186.281h-29.55v-65.505l14.46-18.368l15.09,18.356V186.281z M1074.204,184.333h25.656v-62.871
				l-13.11-15.948l-12.546,15.936V184.333z"/>
			
				<rect x="1079.222" y="130.215" transform="matrix(0.848 0.53 -0.53 0.848 241.42 -579.3192)" fill="#818181" width="102.74" height="1.948"/>
			
				<rect x="1078.254" y="130.216" transform="matrix(0.8117 0.584 -0.584 0.8117 288.3821 -632.2472)" fill="#818181" width="93.244" height="1.946"/>
			
				<rect x="990.989" y="32.297" transform="matrix(0.2748 0.9615 -0.9615 0.2748 845.5223 -858.6371)" fill="#818181" width="1.948" height="197.784"/>
			
				<rect x="1001.628" y="42.478" transform="matrix(0.3064 0.9519 -0.9519 0.3064 820.2516 -863.3809)" fill="#818181" width="1.947" height="177.423"/>
			
				<line fill="none" stroke="#818181" stroke-width="1.9474" stroke-miterlimit="10" x1="833.9" y1="197.253" x2="833.9" y2="265.713"/>
			<rect x="1125.852" y="154.522" fill="#5D5D5D" width="51.396" height="35.377"/>
			<g>
				
					<rect x="1070.193" y="278.404" transform="matrix(0.7842 0.6206 -0.6206 0.7842 408.0653 -614.4594)" fill="#818181" width="34.291" height="1.947"/>
				
					<rect x="1070.193" y="299.952" transform="matrix(0.7842 0.6206 -0.6206 0.7842 421.4272 -609.8009)" fill="#818181" width="34.291" height="1.947"/>
				
					<rect x="1070.193" y="322.14" transform="matrix(0.7842 0.6206 -0.6206 0.7842 435.2055 -605.0195)" fill="#818181" width="34.291" height="1.946"/>
				
					<rect x="1070.192" y="344.486" transform="matrix(0.7841 0.6206 -0.6206 0.7841 449.1045 -600.2177)" fill="#818181" width="34.292" height="1.947"/>
				
					<rect x="1070.193" y="365.873" transform="matrix(0.7842 0.6206 -0.6206 0.7842 462.3345 -595.5729)" fill="#818181" width="34.291" height="1.947"/>
				
					<rect x="1070.193" y="387.741" transform="matrix(0.7842 0.6206 -0.6206 0.7842 475.9049 -590.8529)" fill="#818181" width="34.291" height="1.947"/>
				
					<rect x="1070.193" y="409.609" transform="matrix(0.7842 0.6206 -0.6206 0.7842 489.4747 -586.1332)" fill="#818181" width="34.291" height="1.947"/>
				
					<rect x="1070.193" y="432.114" transform="matrix(0.7842 0.6205 -0.6205 0.7842 503.4178 -581.2627)" fill="#818181" width="34.29" height="1.947"/>
				
					<rect x="1070.193" y="453.663" transform="matrix(0.7842 0.6206 -0.6206 0.7842 516.8126 -576.6248)" fill="#818181" width="34.291" height="1.946"/>
				
					<rect x="1070.193" y="475.211" transform="matrix(0.7842 0.6206 -0.6206 0.7842 530.1846 -571.9739)" fill="#818181" width="34.291" height="1.947"/>
				
					<rect x="1086.365" y="262.232" transform="matrix(0.6199 0.7847 -0.7847 0.6199 632.5032 -747.0148)" fill="#818181" width="1.947" height="34.291"/>
				
					<rect x="1086.365" y="283.781" transform="matrix(0.6199 0.7847 -0.7847 0.6199 649.4115 -738.8246)" fill="#818181" width="1.947" height="34.291"/>
				
					<rect x="1086.365" y="305.967" transform="matrix(0.62 0.7846 -0.7846 0.62 666.6569 -730.3264)" fill="#818181" width="1.947" height="34.291"/>
				
					<rect x="1086.365" y="328.313" transform="matrix(0.6198 0.7848 -0.7848 0.6198 684.5212 -721.9608)" fill="#818181" width="1.947" height="34.291"/>
				
					<rect x="1086.365" y="349.701" transform="matrix(0.62 0.7846 -0.7846 0.62 700.9695 -713.7089)" fill="#818181" width="1.947" height="34.291"/>
				
					<rect x="1086.365" y="371.569" transform="matrix(0.6203 0.7844 -0.7844 0.6203 717.7864 -705.2848)" fill="#818181" width="1.946" height="34.291"/>
				
					<rect x="1086.365" y="393.437" transform="matrix(0.62 0.7846 -0.7846 0.62 735.2832 -697.0909)" fill="#818181" width="1.947" height="34.291"/>
				
					<rect x="1086.365" y="415.942" transform="matrix(0.62 0.7846 -0.7846 0.62 752.9403 -688.5398)" fill="#818181" width="1.947" height="34.29"/>
				
					<rect x="1086.365" y="437.491" transform="matrix(0.6203 0.7844 -0.7844 0.6203 769.4939 -680.2531)" fill="#818181" width="1.946" height="34.291"/>
				
					<rect x="1086.365" y="459.039" transform="matrix(0.62 0.7846 -0.7846 0.62 786.7533 -672.1643)" fill="#818181" width="1.947" height="34.291"/>
				<path fill="#818181" d="M1101.758,488.158h-28.838V266.416h28.838V488.158z M1074.868,486.212h24.941V268.363h-24.941V486.212z"
					/>
			</g>
			<rect x="1070.097" y="244.768" fill="#818181" width="34.484" height="26.915"/>
			<rect x="1066.248" y="185.805" fill="#5D5D5D" width="42.182" height="62.129"/>
			<rect x="1068.854" y="487.56" fill="#545454" width="36.969" height="4.453"/>
			<rect x="1065.137" y="492.013" fill="#5D5D5D" width="44.404" height="34.526"/>
			<rect x="826.409" y="186.281" fill="#5D5D5D" width="14.867" height="11.504"/>
			<rect x="826.409" y="260.28" fill="#5D5D5D" width="14.867" height="11.505"/>
		</g>
	</g>
</g>
<g id="Calque_2">
	<text transform="matrix(1 0 0 1 10.6904 441.9375)"><tspan x="0" y="0" fill="#E60000" font-family="'SourceSansPro-Black'" font-size="154.1007">MAINTENA</tspan><tspan x="727.967" y="0" fill="none" font-family="'SourceSansPro-Black'" font-size="154.1007">NC</tspan><tspan x="921.825" y="0" fill="#E60000" font-family="'SourceSansPro-Black'" font-size="154.1007">E</tspan></text>
	
		<text transform="matrix(0.9908 0.1352 -0.1352 0.9908 736.5488 397.9756)" fill="#E60000" font-family="'SourceSansPro-Black'" font-size="154.1007">NC</text>
</g>
</svg>
