<?xml version="1.0" encoding="utf-8"?>
<!-- Generator: Adobe Illustrator 16.0.0, SVG Export Plug-In . SVG Version: 6.00 Build 0)  -->
<!DOCTYPE svg PUBLIC "-//W3C//DTD SVG 1.1//EN" "http://www.w3.org/Graphics/SVG/1.1/DTD/svg11.dtd">
<svg version="1.1" xmlns="http://www.w3.org/2000/svg" xmlns:xlink="http://www.w3.org/1999/xlink" x="0px" y="0px" width="1200px"
	 height="628px" viewBox="0 0 1200 628" enable-background="new 0 0 1200 628" xml:space="preserve">
<g id="Calque_3">
	<g>
		<path fill="#E60000" d="M666.7,358.699c0,0-34.028-19.512-29.562-64.703c4.459-45.178,55.768-55.215,73.063-52.43
			c0,0,11.717-53.55,76.429-47.405c0,0,34.565-74.187,121.032-39.044c0,0,55.223,26.774,47.419,87.572
			c0,0,49.636,12.825,46.856,65.249c-1.119-2.779,2.779,34.024-31.236,51.881"/>
		<path fill="#E60000" d="M212.621,399.061c0,0-26.436-15.158-22.965-50.264c3.461-35.095,43.321-42.893,56.756-40.727
			c0,0,9.101-41.604,59.376-36.829c0,0,26.851-57.629,94.02-30.329c0,0,42.901,20.796,36.835,68.026c0,0,38.559,9.961,36.399,50.69
			c-0.869-2.164,2.16,26.434-24.263,40.303"/>
		<g>
			<g>
				<g>
					<rect x="318.723" y="401.24" fill="#DADADA" width="23.152" height="138.914"/>
					<rect x="232.289" y="517.004" fill="#DADADA" width="211.452" height="23.15"/>
					<g>
						<path fill="#818181" d="M334.009,517.004h-5.877v-14.688h5.877V517.004z M334.009,487.631h-5.877v-14.689h5.877V487.631z
							 M334.009,458.26h-5.877v-14.688h5.877V458.26z M334.009,428.881h-5.877v-14.684h5.877V428.881z"/>
					</g>
					<g>
						<path fill="#818181" d="M372.19,532.283h-14.688v-5.869h14.688V532.283z M342.816,532.283h-14.687v-5.869h14.687V532.283z
							 M313.441,532.283h-14.688v-5.869h14.688V532.283z M284.067,532.283H269.38v-5.869h14.688V532.283z M254.692,532.283h-14.687
							v-5.869h14.687V532.283z M430.939,532.283H416.25v-5.869h14.689V532.283z M401.561,532.283h-14.685v-5.869h14.685V532.283z"/>
					</g>
				</g>
				<g>
					<rect x="522.46" y="178.987" fill="#DADADA" width="23.151" height="140.454"/>
					<rect x="436.025" y="294.744" fill="#FFFFFF" width="211.456" height="24.697"/>
					<g>
						<path fill="#231F20" d="M634.673,310.027h-14.684v-5.873h14.684V310.027z M605.298,310.027h-14.687v-5.873h14.687V310.027z
							 M575.924,310.027h-14.686v-5.873h14.686V310.027z M546.552,310.027h-14.689v-5.873h14.689V310.027z M517.175,310.027h-14.684
							v-5.873h14.684V310.027z M487.801,310.027h-14.687v-5.873h14.687V310.027z M458.43,310.027h-14.689v-5.873h14.689V310.027z"/>
					</g>
					<g>
						<path fill="#818181" d="M537.743,294.744h-5.876v-14.686h5.876V294.744z M537.743,265.369h-5.876v-14.686h5.876V265.369z
							 M537.743,235.996h-5.876v-14.688h5.876V235.996z M537.743,206.622h-5.876v-14.685h5.876V206.622z"/>
					</g>
				</g>
				<g>
					<rect x="817.261" y="359.57" fill="#DADADA" width="24.689" height="138.906"/>
					<rect x="730.825" y="475.334" fill="#DADADA" width="211.454" height="23.143"/>
					<g>
						<path fill="#818181" d="M832.544,475.334h-5.873v-14.693h5.873V475.334z M832.544,445.953h-5.873v-14.688h5.873V445.953z
							 M832.544,416.578h-5.873v-14.684h5.873V416.578z M832.544,387.209h-5.873V372.52h5.873V387.209z"/>
					</g>
					<g>
						<g>
							<rect x="928.761" y="484.738" fill="#818181" width="7.347" height="5.877"/>
						</g>
						<g>
							<path fill="#818181" d="M914.693,490.615h-14.067v-5.877h14.067V490.615z M886.562,490.615h-14.068v-5.877h14.068V490.615z
								 M858.424,490.615h-14.066v-5.877h14.066V490.615z M830.295,490.615h-14.069v-5.877h14.069V490.615z M802.16,490.615h-14.068
								v-5.877h14.068V490.615z M774.023,490.615h-14.07v-5.877h14.07V490.615z"/>
						</g>
						<g>
							<rect x="738.54" y="484.738" fill="#231F20" width="7.346" height="5.877"/>
						</g>
					</g>
				</g>
				<g>
					<g>
						<path fill="#D1D3D4" stroke="#231F20" stroke-width="5.2873" stroke-linejoin="round" stroke-miterlimit="10" d="
							M167.604,419.848"/>
					</g>
					<g>
						<path fill="#D1D3D4" d="M457.043,353.76c0,0-4.426,7.586-4.615,13.418"/>
						<path fill="#231F20" d="M455.365,367.273l-5.87-0.191c0.207-6.502,4.817-14.463,5.011-14.797l5.076,2.955
							C458.456,357.18,455.5,363.113,455.365,367.273z"/>
					</g>
				</g>
				<g>
					<g>
						<path fill="#D1D3D4" stroke="#231F20" stroke-width="5.2873" stroke-linejoin="round" stroke-miterlimit="10" d="
							M324.731,211.327"/>
					</g>
					<g>
						<path fill="#D1D3D4" d="M422.211,133.22c0,0,9.811,7.868,13.024,9.542"/>
					</g>
					<g>
						<path fill="#D1D3D4" d="M614.172,145.237c0,0-4.429,7.585-4.62,13.411"/>
					</g>
				</g>
				<g>
					<g>
						<path fill="#D1D3D4" stroke="#231F20" stroke-width="5.2873" stroke-linejoin="round" stroke-miterlimit="10" d="
							M612.551,392.764"/>
					</g>
					<g>
						<path fill="#D1D3D4" d="M710.029,314.659c0,0,9.811,7.867,13.03,9.535"/>
						<path fill="#231F20" d="M721.698,326.795c-3.365-1.75-12.476-9.021-13.502-9.848l3.675-4.583
							c3.852,3.088,10.379,8.098,12.543,9.227L721.698,326.795z"/>
					</g>
				</g>
				<g>
					<rect x="448.373" y="351.848" fill="#818181" width="311.783" height="29.332"/>
					<rect x="445.286" y="467.611" fill="#818181" width="311.778" height="30.865"/>
					<rect x="443.741" y="584.91" fill="#818181" width="311.778" height="30.877"/>
					<g>
						<rect x="423.678" y="262.331" fill="#DADADA" width="361.168" height="87.98"/>
						<path fill="#818181" d="M784.847,353.248H423.678c-1.624,0-2.937-1.312-2.937-2.938v-87.98c0-1.621,1.312-2.935,2.937-2.935
							h361.168c1.624,0,2.937,1.314,2.937,2.935v87.98C787.783,351.936,786.471,353.248,784.847,353.248z M426.616,347.375h355.297
							v-82.109H426.616V347.375z"/>
					</g>
					<g>
						<rect x="422.133" y="381.18" fill="#DADADA" width="361.171" height="86.432"/>
						<path fill="#818181" d="M783.304,470.547H422.133c-1.621,0-2.936-1.312-2.936-2.936V381.18c0-1.627,1.315-2.936,2.936-2.936
							h361.171c1.624,0,2.937,1.309,2.937,2.936v86.432C786.24,469.234,784.928,470.547,783.304,470.547z M425.069,464.674h355.294
							v-80.553H425.069V464.674z"/>
					</g>
					<g>
						<rect x="420.589" y="498.477" fill="#DADADA" width="361.171" height="86.434"/>
						<path fill="#818181" d="M781.761,587.852H420.589c-1.623,0-2.937-1.316-2.937-2.941v-86.434c0-1.615,1.314-2.934,2.937-2.934
							h361.171c1.62,0,2.937,1.318,2.937,2.934v86.434C784.697,586.535,783.381,587.852,781.761,587.852z M423.53,581.977h355.294
							v-80.559H423.53V581.977z"/>
					</g>
					<g>
						<rect x="403.613" y="612.844" fill="#818181" width="399.758" height="5.877"/>
					</g>
					<g>
						<rect x="445.435" y="280.854" fill="#818181" width="5.875" height="44.757"/>
					</g>
					<g>
						<rect x="463.956" y="280.854" fill="#818181" width="5.877" height="44.757"/>
					</g>
					<g>
						<rect x="482.476" y="280.854" fill="#818181" width="5.878" height="44.757"/>
					</g>
					<g>
						<rect x="502.545" y="280.854" fill="#818181" width="5.873" height="44.757"/>
					</g>
					<g>
						<rect x="521.066" y="280.854" fill="#818181" width="5.873" height="44.757"/>
					</g>
					<rect x="542.524" y="280.854" fill="#E6E7E8" width="216.083" height="23.148"/>
					<path fill="#FFFFFF" d="M742.776,310.365c0,12.229-9.91,22.137-22.134,22.137c-12.229,0-22.133-9.908-22.133-22.137
						c0-12.225,9.904-22.136,22.133-22.136C732.866,288.229,742.776,298.14,742.776,310.365z"/>
					<g>
						<rect x="713.849" y="307.24" fill="#818181" width="15.434" height="5.871"/>
					</g>
					<path fill="#FFFFFF" d="M491.667,423.443c0,12.223-9.911,22.129-22.133,22.129c-12.227,0-22.134-9.906-22.134-22.129
						c0-12.23,9.908-22.139,22.134-22.139C481.755,401.305,491.667,411.213,491.667,423.443z"/>
					<g>
						<rect x="462.263" y="419.914" fill="#818181" width="16.98" height="5.869"/>
					</g>
					<path fill="#FFFFFF" d="M563.623,423.443c0,12.223-9.912,22.129-22.136,22.129c-12.222,0-22.133-9.906-22.133-22.129
						c0-12.23,9.911-22.139,22.133-22.139C553.711,401.305,563.623,411.213,563.623,423.443z"/>
					<g>
						<rect x="534.807" y="419.914" fill="#818181" width="15.433" height="5.869"/>
					</g>
					<path fill="#FFFFFF" d="M632.643,423.443c0,12.223-9.918,22.129-22.137,22.129c-12.224,0-22.135-9.906-22.135-22.129
						c0-12.23,9.911-22.139,22.135-22.139C622.725,401.305,632.643,411.213,632.643,423.443z"/>
					<g>
						<rect x="604.259" y="419.914" fill="#818181" width="15.434" height="5.869"/>
					</g>
					<g>
						<rect x="542.524" y="316.502" fill="#818181" width="115.759" height="5.877"/>
					</g>
					<g>
						<rect x="667.544" y="316.502" fill="#818181" width="15.437" height="5.877"/>
					</g>
					<rect x="548.696" y="285.484" fill="#E60000" width="6.174" height="13.893"/>
					<rect x="564.134" y="285.484" fill="#E60000" width="6.172" height="13.893"/>
					<rect x="578.027" y="285.484" fill="#E60000" width="6.169" height="13.893"/>
					<rect x="593.46" y="285.484" fill="#E60000" width="6.17" height="13.893"/>
					<rect x="607.35" y="285.484" fill="#E60000" width="6.172" height="13.893"/>
					<rect x="622.777" y="285.484" fill="#818181" width="6.183" height="13.893"/>
					<rect x="636.677" y="285.484" fill="#818181" width="6.172" height="13.893"/>
					<rect x="652.108" y="285.484" fill="#818181" width="6.175" height="13.893"/>
					<rect x="666.002" y="285.484" fill="#818181" width="6.171" height="13.893"/>
					<rect x="682.98" y="285.484" fill="#818181" width="6.171" height="13.893"/>
					<rect x="655.197" y="401.24" fill="#F1F2F2" width="16.976" height="26.24"/>
					<rect x="684.52" y="401.24" fill="#E60000" width="16.981" height="26.24"/>
					<rect x="713.849" y="401.24" fill="#F1F2F2" width="16.977" height="26.24"/>
					<rect x="743.173" y="401.24" fill="#E60000" width="16.982" height="26.24"/>
					<g>
						<rect x="661.521" y="413.586" fill="#818181" width="5.87" height="30.871"/>
					</g>
					<g>
						<rect x="690.851" y="413.586" fill="#818181" width="5.872" height="30.871"/>
					</g>
					<g>
						<rect x="720.166" y="413.586" fill="#818181" width="5.878" height="30.871"/>
					</g>
					<g>
						<rect x="749.496" y="413.586" fill="#818181" width="5.876" height="30.871"/>
					</g>
					<g>
						<rect x="655.197" y="410.654" fill="#818181" width="16.976" height="5.873"/>
					</g>
					<g>
						<rect x="684.52" y="410.654" fill="#818181" width="16.981" height="5.873"/>
					</g>
					<g>
						<rect x="713.849" y="410.654" fill="#818181" width="16.977" height="5.873"/>
					</g>
					<g>
						<rect x="743.173" y="410.654" fill="#818181" width="16.982" height="5.873"/>
					</g>
					<rect x="636.677" y="517.004" fill="#E60000" width="120.388" height="46.303"/>
					<path fill="#FFFFFF" d="M488.73,540.916c0,12.221-9.914,22.137-22.138,22.137c-12.222,0-22.13-9.916-22.13-22.137
						c0-12.225,9.909-22.131,22.13-22.131C478.816,518.785,488.73,528.691,488.73,540.916z"/>
					<g>
						<rect x="459.176" y="537.217" fill="#818181" width="16.979" height="5.871"/>
					</g>
					<g>
						<rect x="653.804" y="517.004" fill="#818181" width="5.875" height="46.303"/>
					</g>
					<g>
						<rect x="647.48" y="514.066" fill="#818181" width="16.976" height="5.875"/>
					</g>
					<g>
						<rect x="678.502" y="517.004" fill="#818181" width="5.868" height="46.303"/>
					</g>
					<g>
						<rect x="672.173" y="560.371" fill="#818181" width="18.528" height="5.869"/>
					</g>
					<g>
						<rect x="712.457" y="517.004" fill="#818181" width="5.876" height="46.303"/>
					</g>
					<g>
						<rect x="706.127" y="514.066" fill="#818181" width="18.523" height="5.875"/>
					</g>
					<g>
						<rect x="737.146" y="517.004" fill="#818181" width="5.877" height="46.303"/>
					</g>
					<g>
						<rect x="730.825" y="560.371" fill="#818181" width="18.519" height="5.869"/>
					</g>
					<g>
						<rect x="508.566" y="523.328" fill="#818181" width="112.674" height="5.873"/>
					</g>
					<g>
						<rect x="508.566" y="537.217" fill="#818181" width="112.674" height="5.871"/>
					</g>
					<g>
						<rect x="508.566" y="552.646" fill="#818181" width="112.674" height="5.879"/>
					</g>
				</g>
			</g>
		</g>
		<path fill="#E60000" d="M385.07,217.034c0,0-34.025-19.517-29.561-64.703c4.458-45.179,55.769-55.219,73.062-52.428
			c0,0,11.717-53.552,76.433-47.408c0,0,34.563-74.188,121.027-39.043c0,0,55.23,26.775,47.42,87.571
			c0,0,49.637,12.825,46.856,65.249c-1.116-2.782,2.78,34.028-31.233,51.878"/>
	</g>
</g>
<g id="Calque_2">
</g>
</svg>
